# xmcd
# 
# Track frame offsets:
#     183
#     23673
#     41008
#     60440
#     78218
#     95495
#     119395
#     140825
#     159020
#     178220
#     196608
# 
# Disc length: 2943
# 
# Revision: 3
# Processed by: cddbd v1.5.2PL0 Copyright (c) Steve Scherf et al.
# Submitted via: BonkEnc v1.0.8
# 
DISCID=840b7d0b
DTITLE=Jeff Lorber - Step by Step
DYEAR=1984
DGENRE=Fusion
TTITLE0=Step By Step
TTITLE1=Groovaciuos
TTITLE2=Every Woman Needs It
TTITLE3=On The Wild Side
TTITLE4=This Is The Night
TTITLE5=Best Part Of The Night
TTITLE6=Pacific Coast Highway
TTITLE7=It Takes A Woman
TTITLE8=When You Gonna Come Back Home
TTITLE9=Step By Step
TTITLE10=Best Part of The Night
EXTD=
EXTT0=
EXTT1=
EXTT2=
EXTT3=
EXTT4=
EXTT5=
EXTT6=
EXTT7=
EXTT8=
EXTT9=
EXTT10=
PLAYORDER=
